<svg xmlns="http://www.w3.org/2000/svg" viewBox="0 0 288.31 76.6"><defs><style>.cls-1{fill:#fff;}.cls-2{fill:#4da86f;}</style></defs><title>Asset 1</title><g id="Layer_2" data-name="Layer 2"><g id="Layer_1-2" data-name="Layer 1"><path class="cls-1" d="M5.39,68.55H3V64.89H1.18v-2H5.39ZM20.64,73.4h-2.4V66.57c0-1.28-.42-1.68-1.7-1.68H13v-2h3.69q4,0,4,3.54Zm17.56,0H35.79V66.57c0-1.3-.4-1.68-1.7-1.68H31.35V73.4H29V62.89h5.3c2.62,0,4,1.18,4,3.52ZM56.37,62.89a30.81,30.81,0,0,1-.26,4.66c-.62,3.91-2.54,5.85-5.76,5.85H47.1l-.9-10.51Zm-7.61,2,.52,6.51h1.09q3.6,0,3.6-6.51ZM74.09,73.4H69.22v-2h2.46V66.57c0-1.3-.4-1.68-1.7-1.68H68.12L66.5,73.4H64.08l1.64-8.51H63.88v-2h6.28c2.63,0,3.93,1.18,3.93,3.54Zm17.49,0h-2.4V64.89H82.39v-2h9.19ZM84.8,67.25V73.4H82.39V67.25Zm29.3,9.35h-2.4V64.89h-1.8v-2h4.2Zm11.11-15.71-1.48,4.9h-1.54l.84-4.9Zm3.66,0-1.48,4.9h-1.54l.84-4.9Zm15.86,2L140.62,73.4H138l3.49-8.51H136V60h2.4v2.94Zm15.29,2h-1.46V73.4h-2.4V64.89h-4.83v-2H160ZM172,73.4h-4.62v-2h2.22V64.89h-2v-2H172Zm16.72,0h-8.81v-2h4.92V64.89h-4.92v-2h7.33V71.4h1.48Zm27.5,0h-2.4V64.89H207v-2h9.19Zm-6.79-6.15V73.4H207V67.25ZM230.66,72A4.78,4.78,0,0,1,227,73.4h-2.88v-2h2.72c1.82,0,2.72-1.08,2.72-3.25s-.9-3.26-2.72-3.26h-2.72v-2H227c3.2,0,5,2,5,5.26A5.51,5.51,0,0,1,230.66,72Zm17.86,1.44h-8.79v-2h6.39V66.57c0-1.26-.58-1.68-1.87-1.68h-2.12v3.5h-2.4v-5.5h4.42c2.91,0,4.37,1.3,4.37,3.88Zm17.49,0h-2.4V64.89h-6.78v-2H266Zm-6.78-6.15V73.4h-2.4V67.25Zm24.9,6.15h-4.86v-2h2.46V66.57c0-1.3-.4-1.68-1.7-1.68h-1.87l-1.62,8.51h-2.42l1.64-8.51h-1.84v-2h6.29c2.62,0,3.92,1.18,3.92,3.54Z"></path><polygon class="cls-2" points="238.72 1.41 238.72 8 259.85 8 259.85 45.62 267.18 45.62 267.18 8 288.31 8 288.31 1.41 238.72 1.41"></polygon><path class="cls-1" d="M177.53,22.17V8h25.95q9,0,9,7.33,0,6.84-8.49,6.84ZM170.2,1.4V45.62h7.33V28.76h26.32q7.88,0,12-3.48T220,15.21a13.17,13.17,0,0,0-4-10q-4-3.75-10.75-3.76Zm-19,34.14q-5.66,4.65-15.06,4.64T121,35.57a14.83,14.83,0,0,1-5.68-12.12,14.84,14.84,0,0,1,5.8-12q5.81-4.72,15-4.73,8.43,0,14.11,4.15a14.91,14.91,0,0,1,6.6,12.58,14.91,14.91,0,0,1-5.65,12.09M155.48,6q-7.81-6-19.36-6T116.7,6q-9,6.84-9,17.46,0,10.82,8.91,17.53,7.82,5.93,19.54,5.92T155.54,41a21,21,0,0,0,8.92-17.59q0-10.62-9-17.46M61.25,22.17V8H87q9.17,0,9.16,7.33,0,6.84-8.48,6.84Zm31,6.23a14,14,0,0,0,8.25-4,12.6,12.6,0,0,0,3.24-9c0-4.28-1.33-7.66-4-10.17S93.44,1.4,88.79,1.4H53.92V45.62h7.33V28.76H83.57l12,16.86h8.52ZM7.33,22.17V8h26q9,0,9,7.33,0,6.84-8.49,6.84ZM0,1.4V45.62H7.33V28.76H33.65q7.88,0,12-3.48t4.12-10.07a13.17,13.17,0,0,0-4-10q-4-3.75-10.75-3.76Z"></path><rect class="cls-2" x="225.6" y="13.61" width="7.33" height="32.01"></rect><path class="cls-2" d="M229.27,10.11a4.1,4.1,0,1,0-4.1-4.1,4.11,4.11,0,0,0,4.1,4.1"></path></g></g></svg>